<svg width="24" height="24" viewBox="0 0 24 24" fill="none" xmlns="http://www.w3.org/2000/svg">
<path d="M9.06374 5.42531C9.01945 5.37679 8.98868 5.31749 8.97452 5.25334C8.96036 5.18919 8.9633 5.12244 8.98305 5.05978C9.00279 4.99712 9.03865 4.94075 9.08704 4.89631C9.13542 4.85187 9.19463 4.82092 9.25874 4.80656C10.158 4.60107 11.0776 4.49823 12 4.5C15.27 4.5 18.2409 5.74313 20.5931 8.09531C22.3584 9.86063 23.1525 11.6222 23.1853 11.6963C23.2279 11.7922 23.25 11.896 23.25 12.0009C23.25 12.1059 23.2279 12.2097 23.1853 12.3056C23.1525 12.3797 22.3584 14.1403 20.5931 15.9056C20.3256 16.1719 20.0509 16.4241 19.7691 16.6622C19.6949 16.7252 19.5992 16.7568 19.5021 16.7505C19.405 16.7442 19.3141 16.7005 19.2487 16.6284L9.06374 5.42531ZM20.055 19.7456C20.1226 19.8183 20.1752 19.9036 20.2095 19.9967C20.2439 20.0898 20.2595 20.1888 20.2554 20.288C20.2512 20.3871 20.2275 20.4845 20.1854 20.5744C20.1434 20.6643 20.0839 20.7449 20.0105 20.8117C19.937 20.8784 19.851 20.93 19.7575 20.9632C19.664 20.9965 19.5649 21.0109 19.4657 21.0056C19.3666 21.0002 19.2696 20.9753 19.1802 20.9322C19.0908 20.8891 19.0109 20.8286 18.945 20.7544L16.875 18.4809C15.3398 19.1599 13.6786 19.5072 12 19.5C8.72999 19.5 5.75905 18.2569 3.40687 15.9056C1.64155 14.1403 0.843741 12.3797 0.814679 12.3056C0.772035 12.2097 0.75 12.1059 0.75 12.0009C0.75 11.896 0.772035 11.7922 0.814679 11.6963C0.843741 11.625 1.64155 9.86063 3.40687 8.09531C4.11214 7.38679 4.89887 6.76433 5.75062 6.24094L3.94499 4.25438C3.87737 4.18173 3.82483 4.09639 3.79043 4.00329C3.75603 3.9102 3.74045 3.8112 3.7446 3.71204C3.74874 3.61288 3.77252 3.51552 3.81457 3.42562C3.85661 3.33572 3.91608 3.25506 3.98953 3.18831C4.06298 3.12156 4.14895 3.07005 4.24245 3.03677C4.33595 3.00349 4.43513 2.9891 4.53423 2.99443C4.63334 2.99976 4.7304 3.02471 4.81979 3.06783C4.90918 3.11095 4.98913 3.17138 5.05499 3.24563L20.055 19.7456ZM13.9153 15.2222L8.97562 9.78469C8.46662 10.4821 8.21386 11.3338 8.26002 12.1959C8.30618 13.0581 8.64844 13.8779 9.22899 14.517C9.80955 15.156 10.5928 15.5752 11.4466 15.7037C12.3004 15.8322 13.1724 15.6621 13.9153 15.2222Z" fill="#D4D4D4"/>
</svg>
